<svg width="36" height="36" viewBox="0 0 36 36" fill="none" xmlns="http://www.w3.org/2000/svg">
<path d="M25.5 3H10.5C6.35786 3 3 6.35786 3 10.5V25.5C3 29.6421 6.35786 33 10.5 33H25.5C29.6421 33 33 29.6421 33 25.5V10.5C33 6.35786 29.6421 3 25.5 3Z" stroke="white" stroke-width="2" stroke-linecap="round" stroke-linejoin="round"/>
<path d="M23.9996 17.0545C24.1847 18.3028 23.9714 19.5778 23.3902 20.698C22.8089 21.8182 21.8893 22.7266 20.762 23.294C19.6347 23.8614 18.3572 24.0589 17.1112 23.8584C15.8652 23.6579 14.7142 23.0696 13.8218 22.1772C12.9294 21.2848 12.3412 20.1338 12.1407 18.8878C11.9402 17.6418 12.1377 16.3643 12.7051 15.237C13.2724 14.1098 14.1808 13.1901 15.301 12.6088C16.4212 12.0276 17.6962 11.8144 18.9446 11.9995C20.2179 12.1883 21.3968 12.7817 22.3071 13.6919C23.2174 14.6022 23.8107 15.7811 23.9996 17.0545Z" stroke="white" stroke-width="2" stroke-linecap="round" stroke-linejoin="round"/>
<path d="M26.25 9.75H26.265" stroke="white" stroke-width="2" stroke-linecap="round" stroke-linejoin="round"/>
</svg>
