<svg width="152" height="30" viewBox="0 0 152 30" fill="none" xmlns="http://www.w3.org/2000/svg">
<path d="M19.925 5.5L12.9 19.675L5.875 5.5H0.825L9.825 23H15.975L24.975 5.5H19.925ZM44.5506 9.075V5.5H26.0506V23H44.5506V19.425H30.5506V15.875H44.5506V12.625H30.5506V9.075H44.5506ZM50.6922 5.5H46.1922V23H50.6922V5.5ZM57.1863 19.225V5.5H52.6863V23H70.6863V19.225H57.1863ZM76.9373 5.5H72.4373V23H76.9373V5.5ZM96.9814 5.5V18.65L85.0314 5.5H78.9314V23H83.4314V9.875L95.3564 23H101.481V5.5H96.9814ZM113.823 16.55H120.348C120.248 17.875 118.498 19.775 114.148 19.775C108.323 19.775 107.498 16.475 107.498 14.35C107.498 12.25 108.298 9.025 114.148 9.025C118.898 9.025 120.098 11 120.348 12.325H124.923C124.648 7.975 121.148 5.25 114.148 5.25C106.948 5.25 102.998 8.45 102.998 14.25C102.998 20.05 106.948 23.25 113.398 23.25C117.123 23.25 119.748 22.05 121.398 20.25L121.598 23H124.923V13.625H113.823V16.55Z" fill="white"/>
<g clip-path="url(#clip0_32_2)">
<path d="M137.162 5.5H151.5V19.8373L137.162 5.5Z" fill="#FFC300" stroke="#FFC300"/>
<path d="M147.837 23.4995H133.5V9.16218L147.837 23.4995Z" fill="#FFC300" stroke="#FFC300"/>
</g>
<defs>
<clipPath id="clip0_32_2">
<rect width="19" height="19" fill="white" transform="translate(133 5)"/>
</clipPath>
</defs>
</svg>
