<svg width="36" height="36" viewBox="0 0 36 36" fill="none" xmlns="http://www.w3.org/2000/svg">
<path d="M33.8089 9.63C33.6307 8.91811 33.2678 8.26586 32.7569 7.73911C32.2459 7.21236 31.605 6.82978 30.8989 6.63C28.3189 6 17.9989 6 17.9989 6C17.9989 6 7.6789 6 5.0989 6.69C4.39278 6.88978 3.75187 7.27236 3.24092 7.79911C2.72998 8.32586 2.36709 8.97811 2.1889 9.69C1.71673 12.3083 1.48576 14.9645 1.4989 17.625C1.48207 20.3056 1.71306 22.982 2.1889 25.62C2.38534 26.3098 2.75636 26.9372 3.26612 27.4417C3.77588 27.9462 4.40714 28.3107 5.0989 28.5C7.6789 29.19 17.9989 29.19 17.9989 29.19C17.9989 29.19 28.3189 29.19 30.8989 28.5C31.605 28.3002 32.2459 27.9176 32.7569 27.3909C33.2678 26.8641 33.6307 26.2119 33.8089 25.5C34.2774 22.9014 34.5084 20.2655 34.4989 17.625C34.5157 14.9444 34.2848 12.268 33.8089 9.63V9.63Z" stroke="white" stroke-width="2" stroke-linecap="round" stroke-linejoin="round"/>
<path d="M14.625 22.5297L23.25 17.6247L14.625 12.7197V22.5297Z" stroke="white" stroke-width="2" stroke-linecap="round" stroke-linejoin="round"/>
</svg>
